<?xml version="1.0" encoding="UTF-8" standalone="no"?>
<svg width="209px" height="320px" viewBox="0 0 209 320" version="1.1" xmlns="http://www.w3.org/2000/svg" xmlns:xlink="http://www.w3.org/1999/xlink" xmlns:sketch="http://www.bohemiancoding.com/sketch/ns">
    <!-- Generator: Sketch 3.4.2 (15857) - http://www.bohemiancoding.com/sketch -->
    <title>icon_nutrition</title>
    <desc>Created with Sketch.</desc>
    <defs></defs>
    <g id="Page-1" stroke="none" stroke-width="1" fill="none" fill-rule="evenodd" sketch:type="MSPage">
        <g id="Artboard" sketch:type="MSArtboardGroup" transform="translate(-96.000000, -40.000000)" fill="#FFFFFF">
            <g id="icon_nutrition" sketch:type="MSLayerGroup" transform="translate(96.000000, 40.000000)">
                <path d="M69,300 C69,300 70,320 49,320 C28,320 29,300 29,300 L29,180 C29,180 29,160 19,160 C9,160 1.44749481e-14,160 1.42108547e-14,140 C1.44749481e-14,120 29,20 29,20 C29,20 29,-1.06719221e-14 49,0 C69,1.06719223e-14 69,20 69,20 L69,300 Z" id="Knife" sketch:type="MSShapeGroup"></path>
                <path d="M109,20 C109,20 109,0 129,0 C149,0 169,7.86223245e-15 189,0 C209,-7.86223266e-15 209,20 209,20 L209,80 C209,80 209,100 189,100 C176.995476,100 179,110 179,110 L179,300 C179,300 178,320 159,320 C140,320 140,300 140,300 L140,110 C140,110 139,100 129,100 C119,100 109,100 109,80 L109,20 Z M149,0 L169,0 L169,60 L149,60 L149,0 Z" id="Fork" sketch:type="MSShapeGroup"></path>
            </g>
        </g>
    </g>
</svg>