<?xml version="1.0" encoding="UTF-8" standalone="no"?>
<svg width="626px" height="187px" viewBox="0 0 626 187" version="1.1" xmlns="http://www.w3.org/2000/svg" xmlns:xlink="http://www.w3.org/1999/xlink" xmlns:sketch="http://www.bohemiancoding.com/sketch/ns">
    <!-- Generator: Sketch 3.4.2 (15857) - http://www.bohemiancoding.com/sketch -->
    <title>Logo</title>
    <desc>Created with Sketch.</desc>
    <defs></defs>
    <g id="Page-1" stroke="none" stroke-width="1" fill="none" fill-rule="evenodd" sketch:type="MSPage">
        <g id="Logo" sketch:type="MSLayerGroup" transform="translate(3.000000, 2.000000)">
            <path d="M0,182 L0,63.7886666 L5.82815478,63.7886666 L5.82815478,83.7936615 C9.10650824,77.1252966 14.2364473,71.7906846 21.218126,67.7896656 C28.1998047,63.7886466 35.4545706,61.7881672 42.9826415,61.7881672 C55.0032709,61.7881672 65.2327944,66.0012982 73.671519,74.4276866 C82.1102437,82.8540751 86.3295427,92.9474034 86.3295427,104.707974 C86.3295427,116.468545 82.1102437,126.561874 73.671519,134.988262 C65.2327944,143.41465 55.0032709,147.627782 42.9826415,147.627782 C35.6974116,147.627782 28.594419,145.657612 21.6734506,141.717215 C14.7524822,137.776817 9.47076973,132.472516 5.82815478,125.804151 L5.82815478,182 L0,182 Z M16.6648801,131.35099 C24.1322407,138.807435 32.9958042,142.535601 43.2558363,142.535601 C53.5158684,142.535601 62.2883678,138.807435 69.5735977,131.35099 C76.8588276,123.894546 80.5013879,115.04394 80.5013879,104.798906 C80.5013879,94.5538727 76.8284729,85.6729562 69.4825328,78.1558902 C62.1365926,70.6388243 53.3640932,66.8803477 43.1647714,66.8803477 C32.9654495,66.8803477 24.1322407,70.6691346 16.6648801,78.246822 C9.19751943,85.8245095 5.46389511,94.705426 5.46389511,104.889838 C5.46389511,115.07425 9.19751943,123.894546 16.6648801,131.35099 L16.6648801,131.35099 Z M135.25125,66.8803477 C128.815964,66.8803477 123.139641,69.3051713 118.222111,74.1548913 C113.30458,79.0046112 110.845852,84.6423261 110.845852,91.0682051 L110.845852,145.627282 L105.017697,145.627282 L105.017697,63.7886666 L110.845852,63.7886666 L110.845852,75.9735272 C113.031421,71.8512652 116.431144,68.4565121 121.045123,65.7891661 C125.659102,63.1218201 130.819396,61.7881672 136.526159,61.7881672 C142.232923,61.7881672 147.696763,63.728026 152.917845,67.607802 L152.917845,74.8823456 C147.575343,69.5476536 141.686537,66.8803477 135.25125,66.8803477 L135.25125,66.8803477 Z M171.798414,134.624535 C163.420399,125.95566 159.231455,115.862332 159.231455,104.344247 C159.231455,92.8261622 163.481109,82.8540751 171.980544,74.4276866 C180.479979,66.0012982 190.709502,61.7881672 202.669421,61.7881672 C214.62934,61.7881672 224.828509,66.0012982 233.267234,74.4276866 C241.705958,82.8540751 245.925257,92.8564725 245.925257,104.435179 C245.925257,116.013885 241.797022,126.107214 233.540429,134.715467 C225.283835,143.32372 215.266794,147.627782 203.489005,147.627782 L201.849837,147.627782 C190.193469,147.627782 180.176428,143.293409 171.798414,134.624535 L171.798414,134.624535 Z M229.078248,78.1558902 C221.732307,70.6388243 212.959808,66.8803477 202.760486,66.8803477 C192.561164,66.8803477 183.727955,70.6691346 176.260595,78.246822 C168.793234,85.8245095 165.05961,94.705426 165.05961,104.889838 C165.05961,115.07425 168.793234,123.894546 176.260595,131.35099 C183.727955,138.807435 192.591519,142.535601 202.851551,142.535601 C213.111583,142.535601 221.884083,138.807435 229.169312,131.35099 C236.454542,123.894546 240.097103,115.04394 240.097103,104.798906 C240.097103,94.5538727 236.424188,85.6729562 229.078248,78.1558902 L229.078248,78.1558902 Z M330.910387,67.0622113 C336.070758,63.5461643 342.354175,61.7881672 349.760825,61.7881672 C357.167475,61.7881672 363.663375,64.4554731 369.248718,69.7901651 C374.834061,75.1248571 377.62669,82.3387073 377.62669,91.4319323 L377.62669,145.627282 L371.798535,145.627282 L371.798535,91.4319323 C371.798535,84.3998383 369.49158,78.5499514 364.877602,73.8820959 C360.263623,69.2142404 354.708718,66.8803477 348.212721,66.8803477 C341.716725,66.8803477 335.949338,69.3051713 330.910387,74.1548913 C325.871436,79.0046112 323.351999,84.6423261 323.351999,91.0682051 L323.351999,145.627282 L317.523844,145.627282 L317.523844,91.0682051 C317.523844,84.5210831 315.216889,78.8530579 310.60291,74.0639595 C305.988931,69.274861 300.403672,66.8803477 293.846965,66.8803477 C287.290258,66.8803477 281.58358,69.3051713 276.72676,74.1548913 C271.869941,79.0046112 269.441567,84.6423261 269.441567,91.0682051 L269.441567,145.627282 L263.613412,145.627282 L263.613412,63.7886666 L269.441567,63.7886666 L269.441567,75.2460728 C271.869977,71.6087828 275.482183,68.4565121 280.278292,65.7891661 C285.074402,63.1218201 290.052568,61.7881672 295.212939,61.7881672 C300.37331,61.7881672 305.321121,63.5764746 310.056521,67.1531431 C314.79192,70.7298115 318.252352,75.3672867 320.437921,81.0657077 C322.259229,75.2460437 325.750016,70.5782582 330.910387,67.0622113 L330.910387,67.0622113 Z M399.868091,182 L399.868091,63.7886666 L405.696246,63.7886666 L405.696246,83.7936615 C408.974599,77.1252966 414.104538,71.7906846 421.086217,67.7896656 C428.067895,63.7886466 435.322661,61.7881672 442.850732,61.7881672 C454.871362,61.7881672 465.100885,66.0012982 473.53961,74.4276866 C481.978334,82.8540751 486.197634,92.9474034 486.197634,104.707974 C486.197634,116.468545 481.978334,126.561874 473.53961,134.988262 C465.100885,143.41465 454.871362,147.627782 442.850732,147.627782 C435.565502,147.627782 428.46251,145.657612 421.541541,141.717215 C414.620573,137.776817 409.338861,132.472516 405.696246,125.804151 L405.696246,182 L399.868091,182 Z M416.532971,131.35099 C424.000332,138.807435 432.863895,142.535601 443.123927,142.535601 C453.383959,142.535601 462.156459,138.807435 469.441689,131.35099 C476.726918,123.894546 480.369479,115.04394 480.369479,104.798906 C480.369479,94.5538727 476.696564,85.6729562 469.350624,78.1558902 C462.004683,70.6388243 453.232184,66.8803477 443.032862,66.8803477 C432.83354,66.8803477 424.000332,70.6691346 416.532971,78.246822 C409.06561,85.8245095 405.331986,94.705426 405.331986,104.889838 C405.331986,115.07425 409.06561,123.894546 416.532971,131.35099 L416.532971,131.35099 Z M533.208692,146.718464 C524.587837,146.718464 517.242007,143.838986 511.170982,138.079943 C505.099957,132.320901 502.06449,124.955499 502.06449,115.983517 L502.06449,0.871356891 L507.892645,0.871356891 L507.892645,63.9705302 L507.892645,69.0627107 L507.892645,115.983517 C507.892645,123.37934 510.351373,129.50202 515.268903,134.351739 C520.186433,139.201459 526.166303,141.626283 533.208692,141.626283 L533.208692,146.718464 Z M546.178612,134.624535 C537.800598,125.95566 533.611653,115.862332 533.611653,104.344247 C533.611653,92.8261622 537.861307,82.8540751 546.360742,74.4276866 C554.860177,66.0012982 565.0897,61.7881672 577.049619,61.7881672 C589.009539,61.7881672 599.208707,66.0012982 607.647432,74.4276866 C616.086157,82.8540751 620.305456,92.8564725 620.305456,104.435179 C620.305456,116.013885 616.177221,126.107214 607.920627,134.715467 C599.664033,143.32372 589.646992,147.627782 577.869204,147.627782 L576.230035,147.627782 C564.573667,147.627782 554.556626,143.293409 546.178612,134.624535 L546.178612,134.624535 Z M603.458446,78.1558902 C596.112506,70.6388243 587.340006,66.8803477 577.140684,66.8803477 C566.941362,66.8803477 558.108154,70.6691346 550.640793,78.246822 C543.173432,85.8245095 539.439808,94.705426 539.439808,104.889838 C539.439808,115.07425 543.173432,123.894546 550.640793,131.35099 C558.108154,138.807435 566.971717,142.535601 577.231749,142.535601 C587.491781,142.535601 596.264281,138.807435 603.549511,131.35099 C610.834741,123.894546 614.477301,115.04394 614.477301,104.798906 C614.477301,94.5538727 610.804386,85.6729562 603.458446,78.1558902 L603.458446,78.1558902 Z" id="prompto" stroke="#fff" stroke-width="5" fill="#fff" sketch:type="MSShapeGroup"></path>
            <path d="M544.858564,40.9707629 C563.553118,40.9707629 566.990919,35.1504642 566.990919,27.9707625 C566.990919,20.7910607 563.553118,14.9707629 544.858564,14.9707629 C526.164011,14.9707629 511.009081,24.0840853 511.009081,27.9707629 C511.009081,31.8574406 526.164011,40.9707629 544.858564,40.9707629 Z" id="Oval" stroke="#fff" stroke-width="10" sketch:type="MSShapeGroup"></path>
            <path d="M474.858564,40.9707629 C493.553118,40.9707629 496.990919,35.1504642 496.990919,27.9707625 C496.990919,20.7910607 493.553118,14.9707629 474.858564,14.9707629 C456.164011,14.9707629 441.009081,24.0840853 441.009081,27.9707629 C441.009081,31.8574406 456.164011,40.9707629 474.858564,40.9707629 Z" id="Oval-Copy" stroke="#fff" stroke-width="10" sketch:type="MSShapeGroup" transform="translate(469.000000, 27.970763) rotate(-180.000000) translate(-469.000000, -27.970763) "></path>
            <rect id="Rectangle-1" fill="#fff" sketch:type="MSShapeGroup" x="488" y="63" width="42" height="10"></rect>
        </g>
    </g>
</svg>