<?xml version="1.0" encoding="UTF-8" standalone="no"?>
<svg width="325px" height="225px" viewBox="0 0 325 225" version="1.1" xmlns="http://www.w3.org/2000/svg" xmlns:xlink="http://www.w3.org/1999/xlink" xmlns:sketch="http://www.bohemiancoding.com/sketch/ns">
    <!-- Generator: Sketch 3.4.2 (15857) - http://www.bohemiancoding.com/sketch -->
    <title>Artboard</title>
    <desc>Created with Sketch.</desc>
    <defs></defs>
    <g id="Page-1" stroke="none" stroke-width="1" fill="none" fill-rule="evenodd" sketch:type="MSPage">
        <g id="Artboard" sketch:type="MSArtboardGroup" transform="translate(-37.000000, -128.000000)" fill="#FFFFFF">
            <g id="icon_tick" sketch:type="MSLayerGroup" transform="translate(199.710938, 190.964844) rotate(-315.000000) translate(-199.710938, -190.964844) translate(109.710938, 40.964844)">
                <path d="M7.10542736e-14,280 C7.65651843e-14,260 20,260 20,260 L160,260 C160,260 180,260 180,280 C180,300 160,300 160,300 L20,300 C20,300 7.65651842e-14,300 7.10542736e-14,280 Z" id="Rectangle-1" sketch:type="MSShapeGroup"></path>
                <path d="M140,20 C140,20 140,-1.8369702e-14 160,0 C180,1.83697018e-14 180,20 180,20 L180,280 C180,280 180,300 160,300 C140,300 140,280 140,280 L140,20 Z" id="Rectangle-2" sketch:type="MSShapeGroup"></path>
            </g>
        </g>
    </g>
</svg>