<?xml version="1.0" encoding="UTF-8" standalone="no"?>
<svg width="240px" height="341px" viewBox="0 0 240 341" version="1.1" xmlns="http://www.w3.org/2000/svg" xmlns:xlink="http://www.w3.org/1999/xlink" xmlns:sketch="http://www.bohemiancoding.com/sketch/ns">
    <!-- Generator: Sketch 3.4.2 (15857) - http://www.bohemiancoding.com/sketch -->
    <title>icon_charge</title>
    <desc>Created with Sketch.</desc>
    <defs></defs>
    <g id="Page-1" stroke="none" stroke-width="1" fill="none" fill-rule="evenodd" sketch:type="MSPage">
        <g id="Artboard" sketch:type="MSArtboardGroup" transform="translate(-80.000000, -30.000000)" fill="#FFFFFF">
            <path d="M100,150 C100,150 80,150 80,170 C80,190 100,190 100,190 L100,250 C100,250 102,291 140,291 L170,291 L170,371 L231,371 L231,291 L261,291 C261,291 300,292 300,250 L300,190 C300,190 320,190 320,170 C320,150 300,150 300,150 L281,150 L281,50 C281,50 281,30 256,30 C231,30 231,50 231,50 L231,150 L170,150 L170,50 C170,50 172,30 146,30 C120,30 120,50 120,50 L120,150 L100,150 Z" id="icon_charge" sketch:type="MSShapeGroup"></path>
        </g>
    </g>
</svg>