<?xml version="1.0" encoding="UTF-8" standalone="no"?>
<svg width="626px" height="187px" viewBox="0 0 626 187" version="1.1" xmlns="http://www.w3.org/2000/svg" xmlns:xlink="http://www.w3.org/1999/xlink" xmlns:sketch="http://www.bohemiancoding.com/sketch/ns">
    <!-- Generator: Sketch 3.4.2 (15857) - http://www.bohemiancoding.com/sketch -->
    <title>prompto</title>
    <desc>Created with Sketch.</desc>
    <defs></defs>
    <g id="Page-1" stroke="none" stroke-width="1" fill="none" fill-rule="evenodd" sketch:type="MSPage">
        <path d="M3,184 L3,65.7886666 L8.82815478,65.7886666 L8.82815478,85.7936615 C12.1065082,79.1252966 17.2364473,73.7906846 24.218126,69.7896656 C31.1998047,65.7886466 38.4545706,63.7881672 45.9826415,63.7881672 C58.0032709,63.7881672 68.2327944,68.0012982 76.671519,76.4276866 C85.1102437,84.8540751 89.3295427,94.9474034 89.3295427,106.707974 C89.3295427,118.468545 85.1102437,128.561874 76.671519,136.988262 C68.2327944,145.41465 58.0032709,149.627782 45.9826415,149.627782 C38.6974116,149.627782 31.594419,147.657612 24.6734506,143.717215 C17.7524822,139.776817 12.4707697,134.472516 8.82815478,127.804151 L8.82815478,184 L3,184 Z M19.6648801,133.35099 C27.1322407,140.807435 35.9958042,144.535601 46.2558363,144.535601 C56.5158684,144.535601 65.2883678,140.807435 72.5735977,133.35099 C79.8588276,125.894546 83.5013879,117.04394 83.5013879,106.798906 C83.5013879,96.5538727 79.8284729,87.6729562 72.4825328,80.1558902 C65.1365926,72.6388243 56.3640932,68.8803477 46.1647714,68.8803477 C35.9654495,68.8803477 27.1322407,72.6691346 19.6648801,80.246822 C12.1975194,87.8245095 8.46389511,96.705426 8.46389511,106.889838 C8.46389511,117.07425 12.1975194,125.894546 19.6648801,133.35099 L19.6648801,133.35099 Z M138.25125,68.8803477 C131.815964,68.8803477 126.139641,71.3051713 121.222111,76.1548913 C116.30458,81.0046112 113.845852,86.6423261 113.845852,93.0682051 L113.845852,147.627282 L108.017697,147.627282 L108.017697,65.7886666 L113.845852,65.7886666 L113.845852,77.9735272 C116.031421,73.8512652 119.431144,70.4565121 124.045123,67.7891661 C128.659102,65.1218201 133.819396,63.7881672 139.526159,63.7881672 C145.232923,63.7881672 150.696763,65.728026 155.917845,69.607802 L155.917845,76.8823456 C150.575343,71.5476536 144.686537,68.8803477 138.25125,68.8803477 L138.25125,68.8803477 Z M174.798414,136.624535 C166.420399,127.95566 162.231455,117.862332 162.231455,106.344247 C162.231455,94.8261622 166.481109,84.8540751 174.980544,76.4276866 C183.479979,68.0012982 193.709502,63.7881672 205.669421,63.7881672 C217.62934,63.7881672 227.828509,68.0012982 236.267234,76.4276866 C244.705958,84.8540751 248.925257,94.8564725 248.925257,106.435179 C248.925257,118.013885 244.797022,128.107214 236.540429,136.715467 C228.283835,145.32372 218.266794,149.627782 206.489005,149.627782 L204.849837,149.627782 C193.193469,149.627782 183.176428,145.293409 174.798414,136.624535 L174.798414,136.624535 Z M232.078248,80.1558902 C224.732307,72.6388243 215.959808,68.8803477 205.760486,68.8803477 C195.561164,68.8803477 186.727955,72.6691346 179.260595,80.246822 C171.793234,87.8245095 168.05961,96.705426 168.05961,106.889838 C168.05961,117.07425 171.793234,125.894546 179.260595,133.35099 C186.727955,140.807435 195.591519,144.535601 205.851551,144.535601 C216.111583,144.535601 224.884083,140.807435 232.169312,133.35099 C239.454542,125.894546 243.097103,117.04394 243.097103,106.798906 C243.097103,96.5538727 239.424188,87.6729562 232.078248,80.1558902 L232.078248,80.1558902 Z M333.910387,69.0622113 C339.070758,65.5461643 345.354175,63.7881672 352.760825,63.7881672 C360.167475,63.7881672 366.663375,66.4554731 372.248718,71.7901651 C377.834061,77.1248571 380.62669,84.3387073 380.62669,93.4319323 L380.62669,147.627282 L374.798535,147.627282 L374.798535,93.4319323 C374.798535,86.3998383 372.49158,80.5499514 367.877602,75.8820959 C363.263623,71.2142404 357.708718,68.8803477 351.212721,68.8803477 C344.716725,68.8803477 338.949338,71.3051713 333.910387,76.1548913 C328.871436,81.0046112 326.351999,86.6423261 326.351999,93.0682051 L326.351999,147.627282 L320.523844,147.627282 L320.523844,93.0682051 C320.523844,86.5210831 318.216889,80.8530579 313.60291,76.0639595 C308.988931,71.274861 303.403672,68.8803477 296.846965,68.8803477 C290.290258,68.8803477 284.58358,71.3051713 279.72676,76.1548913 C274.869941,81.0046112 272.441567,86.6423261 272.441567,93.0682051 L272.441567,147.627282 L266.613412,147.627282 L266.613412,65.7886666 L272.441567,65.7886666 L272.441567,77.2460728 C274.869977,73.6087828 278.482183,70.4565121 283.278292,67.7891661 C288.074402,65.1218201 293.052568,63.7881672 298.212939,63.7881672 C303.37331,63.7881672 308.321121,65.5764746 313.056521,69.1531431 C317.79192,72.7298115 321.252352,77.3672867 323.437921,83.0657077 C325.259229,77.2460437 328.750016,72.5782582 333.910387,69.0622113 L333.910387,69.0622113 Z M402.868091,184 L402.868091,65.7886666 L408.696246,65.7886666 L408.696246,85.7936615 C411.974599,79.1252966 417.104538,73.7906846 424.086217,69.7896656 C431.067895,65.7886466 438.322661,63.7881672 445.850732,63.7881672 C457.871362,63.7881672 468.100885,68.0012982 476.53961,76.4276866 C484.978334,84.8540751 489.197634,94.9474034 489.197634,106.707974 C489.197634,118.468545 484.978334,128.561874 476.53961,136.988262 C468.100885,145.41465 457.871362,149.627782 445.850732,149.627782 C438.565502,149.627782 431.46251,147.657612 424.541541,143.717215 C417.620573,139.776817 412.338861,134.472516 408.696246,127.804151 L408.696246,184 L402.868091,184 Z M419.532971,133.35099 C427.000332,140.807435 435.863895,144.535601 446.123927,144.535601 C456.383959,144.535601 465.156459,140.807435 472.441689,133.35099 C479.726918,125.894546 483.369479,117.04394 483.369479,106.798906 C483.369479,96.5538727 479.696564,87.6729562 472.350624,80.1558902 C465.004683,72.6388243 456.232184,68.8803477 446.032862,68.8803477 C435.83354,68.8803477 427.000332,72.6691346 419.532971,80.246822 C412.06561,87.8245095 408.331986,96.705426 408.331986,106.889838 C408.331986,117.07425 412.06561,125.894546 419.532971,133.35099 L419.532971,133.35099 Z M536.208692,148.718464 C527.587837,148.718464 520.242007,145.838986 514.170982,140.079943 C508.099957,134.320901 505.06449,126.955499 505.06449,117.983517 L505.06449,2.87135689 L510.892645,2.87135689 L510.892645,65.9705302 L510.892645,71.0627107 L510.892645,117.983517 C510.892645,125.37934 513.351373,131.50202 518.268903,136.351739 C523.186433,141.201459 529.166303,143.626283 536.208692,143.626283 L536.208692,148.718464 Z M549.178612,136.624535 C540.800598,127.95566 536.611653,117.862332 536.611653,106.344247 C536.611653,94.8261622 540.861307,84.8540751 549.360742,76.4276866 C557.860177,68.0012982 568.0897,63.7881672 580.049619,63.7881672 C592.009539,63.7881672 602.208707,68.0012982 610.647432,76.4276866 C619.086157,84.8540751 623.305456,94.8564725 623.305456,106.435179 C623.305456,118.013885 619.177221,128.107214 610.920627,136.715467 C602.664033,145.32372 592.646992,149.627782 580.869204,149.627782 L579.230035,149.627782 C567.573667,149.627782 557.556626,145.293409 549.178612,136.624535 L549.178612,136.624535 Z M606.458446,80.1558902 C599.112506,72.6388243 590.340006,68.8803477 580.140684,68.8803477 C569.941362,68.8803477 561.108154,72.6691346 553.640793,80.246822 C546.173432,87.8245095 542.439808,96.705426 542.439808,106.889838 C542.439808,117.07425 546.173432,125.894546 553.640793,133.35099 C561.108154,140.807435 569.971717,144.535601 580.231749,144.535601 C590.491781,144.535601 599.264281,140.807435 606.549511,133.35099 C613.834741,125.894546 617.477301,117.04394 617.477301,106.798906 C617.477301,96.5538727 613.804386,87.6729562 606.458446,80.1558902 L606.458446,80.1558902 Z" id="prompto" stroke="#1A1919" stroke-width="5" fill="#1A1918" sketch:type="MSShapeGroup"></path>
    </g>
</svg>